<svg xmlns="http://www.w3.org/2000/svg" width="491.342" height="393.073" viewBox="0 0 491.342 393.073">
  <path id="Icon_awesome-project-diagram" data-name="Icon awesome-project-diagram" d="M294.8,245.671H196.537a24.57,24.57,0,0,0-24.567,24.567v98.268a24.57,24.57,0,0,0,24.567,24.567H294.8a24.57,24.57,0,0,0,24.567-24.567V270.238A24.57,24.57,0,0,0,294.8,245.671ZM147.4,24.567A24.57,24.57,0,0,0,122.835,0H24.567A24.57,24.57,0,0,0,0,24.567v98.268A24.57,24.57,0,0,0,24.567,147.4H98.053l56.166,98.3a48.971,48.971,0,0,1,42.317-24.6h.215L147.4,134.743V98.268h171.97V49.134H147.4ZM466.774,0H368.506a24.57,24.57,0,0,0-24.567,24.567v98.268A24.57,24.57,0,0,0,368.506,147.4h98.268a24.57,24.57,0,0,0,24.567-24.567V24.567A24.57,24.57,0,0,0,466.774,0Z" fill="#39beec" opacity="0.1"/>
</svg>
