<svg xmlns="http://www.w3.org/2000/svg" xmlns:xlink="http://www.w3.org/1999/xlink" width="639.926" height="504.803" viewBox="0 0 639.926 504.803">
  <defs>
    <filter id="Path_1144" x="3.261" y="426.601" width="80.314" height="78.202" filterUnits="userSpaceOnUse">
      <feOffset dy="6" input="SourceAlpha"/>
      <feGaussianBlur stdDeviation="6" result="blur"/>
      <feFlood flood-opacity="0.2"/>
      <feComposite operator="in" in2="blur"/>
      <feComposite in="SourceGraphic"/>
    </filter>
    <filter id="Path_1145" x="263.088" y="423.447" width="80.314" height="78.202" filterUnits="userSpaceOnUse">
      <feOffset dy="6" input="SourceAlpha"/>
      <feGaussianBlur stdDeviation="6" result="blur-2"/>
      <feFlood flood-opacity="0.2"/>
      <feComposite operator="in" in2="blur-2"/>
      <feComposite in="SourceGraphic"/>
    </filter>
    <filter id="Rectangle_258" x="0" y="77.904" width="366.565" height="397.628" filterUnits="userSpaceOnUse">
      <feOffset dy="6" input="SourceAlpha"/>
      <feGaussianBlur stdDeviation="6" result="blur-3"/>
      <feFlood flood-opacity="0.2"/>
      <feComposite operator="in" in2="blur-3"/>
      <feComposite in="SourceGraphic"/>
    </filter>
  </defs>
  <g id="Layer_2" data-name="Layer 2" transform="translate(18 102.56)">
    <g id="Layer_3" data-name="Layer 3" transform="translate(0 -102.56)">
      <g transform="matrix(1, 0, 0, 1, -18, 0)" filter="url(#Path_1144)">
        <path id="Path_1144-2" data-name="Path 1144" d="M26.727,547.222H4.57v-42.2H48.884v19.039Z" transform="translate(16.69 -66.42)" fill="#054564"/>
      </g>
      <g transform="matrix(1, 0, 0, 1, -18, 0)" filter="url(#Path_1145)">
        <path id="Path_1145-2" data-name="Path 1145" d="M390.837,542.8h22.157V500.6H368.68v19.039Z" transform="translate(-87.59 -65.15)" fill="#054564"/>
      </g>
      <g transform="matrix(1, 0, 0, 1, -18, 0)" filter="url(#Rectangle_258)">
        <rect id="Rectangle_258-2" data-name="Rectangle 258" width="330.565" height="361.628" rx="20.63" transform="translate(18 89.9)" fill="#0b8ecf"/>
      </g>
      <rect id="Rectangle_259" data-name="Rectangle 259" width="281.042" height="300.037" rx="3.82" transform="translate(24.762 120.695)" fill="#343738"/>
      <circle id="Ellipse_27" data-name="Ellipse 27" cx="116.894" cy="116.894" r="116.894" transform="translate(139.436 195.38)" fill="#f6d738"/>
      <circle id="Ellipse_28" data-name="Ellipse 28" cx="99.204" cy="99.204" r="99.204" transform="translate(157.126 213.07)" fill="#f3cc30"/>
      <path id="Path_1146" data-name="Path 1146" d="M377.6,209.34A99.189,99.189,0,0,1,242.07,347.328,99.189,99.189,0,1,0,377.6,209.34Z" transform="translate(-69.33 18.266)" fill="#edbd31"/>
      <path id="Path_1147" data-name="Path 1147" d="M241.945,301.673A87.565,87.565,0,0,1,398.935,248.3a87.579,87.579,0,1,0-145.352,97.049,87.186,87.186,0,0,1-11.639-43.672Z" transform="translate(-67.436 19.678)" fill="#f7db5e"/>
      <path id="Path_1148" data-name="Path 1148" d="M354.494,238.26v12.659a26.719,26.719,0,0,1,12.445,5q4.831,3.775,9.22,11.674l-12.574,7.029Q357.912,264.3,348.756,264.3a13.558,13.558,0,0,0-9.412,3.354,10.783,10.783,0,0,0-3.746,8.385,10.326,10.326,0,0,0,3.033,7.607q2.969,2.961,12,7.029a119.771,119.771,0,0,1,12.895,6.672,34.324,34.324,0,0,1,7.671,6.03,26.981,26.981,0,0,1,7.293,19.024,30.463,30.463,0,0,1-6.579,19.338,31.8,31.8,0,0,1-17.412,11.225v13.344H343.212V353.363q-12.645-2.069-19.267-8.706t-9.8-20.5l14.172-2.969q2.9,9.8,7.093,13.994,4.389,4,11.674,4a16.477,16.477,0,0,0,11.867-4.581,15.464,15.464,0,0,0,4.7-11.667,13.751,13.751,0,0,0-3.932-10.254,36.221,36.221,0,0,0-5.9-4.224,100.756,100.756,0,0,0-9.99-5.124q-12.509-5.609-16.413-10.319a24.426,24.426,0,0,1-6.237-16.827,24.726,24.726,0,0,1,1.484-8.642,23.734,23.734,0,0,1,4.282-7.257,26.624,26.624,0,0,1,6.936-5.637,37.035,37.035,0,0,1,9.348-3.739V238.26Z" transform="translate(-89.972 9.983)" fill="#d49a34"/>
      <circle id="Ellipse_29" data-name="Ellipse 29" cx="116.894" cy="116.894" r="116.894" transform="translate(91.021 312.277) rotate(-45)" opacity="0.12"/>
      <circle id="Ellipse_30" data-name="Ellipse 30" cx="138.154" cy="138.154" r="138.154" transform="translate(231.165 195.38) rotate(-45)" fill="#fdda00"/>
      <circle id="Ellipse_31" data-name="Ellipse 31" cx="117.255" cy="117.255" r="117.255" transform="translate(260.721 195.38) rotate(-45)" fill="#f3cc30"/>
      <path id="Path_1149" data-name="Path 1149" d="M448.307,71.61A117.269,117.269,0,0,1,280.35,226.644,117.262,117.262,0,1,0,448.307,71.61Z" transform="translate(44.421 26.831)" fill="#edbd31"/>
      <path id="Path_1150" data-name="Path 1150" d="M283.768,170.991A103.514,103.514,0,0,1,472.19,117.056,103.514,103.514,0,1,0,294.971,223.188a103.047,103.047,0,0,1-11.2-52.2Z" transform="translate(45.658 30.362)" fill="#f7db5e"/>
      <path id="Path_1151" data-name="Path 1151" d="M425.4,103.589l-.731,14.884q8.91,1.9,14.4,6.664t10.209,14.309l-15.25,7.571q-6.089-12.516-16.914-13.044a16.142,16.142,0,0,0-11.305,3.383,12.733,12.733,0,0,0-4.9,9.675,12.178,12.178,0,0,0,3.139,9.228q3.329,3.674,13.748,8.992a140.569,140.569,0,0,1,14.837,8.626,40.675,40.675,0,0,1,8.714,7.564,32.056,32.056,0,0,1,7.5,22.881,35.993,35.993,0,0,1-8.89,22.448,37.482,37.482,0,0,1-21.21,12.219l-.771,15.757-13.322-.677.751-15.257q-14.8-3.173-22.252-11.4T372.76,202.644l16.914-2.706q2.862,11.732,7.564,16.914,4.946,4.973,13.531,5.413a19.436,19.436,0,0,0,14.269-4.736A18.143,18.143,0,0,0,431.276,204q.365-7.53-4.059-12.327a43.069,43.069,0,0,0-6.718-5.331,120.615,120.615,0,0,0-11.461-6.63q-14.445-7.347-18.815-13.132a30.506,30.506,0,0,1-4.154-30.344,27.921,27.921,0,0,1,5.48-8.315,31.675,31.675,0,0,1,8.511-6.258,43.86,43.86,0,0,1,11.285-3.775L412.075,103Z" transform="translate(14.532 16.678)" fill="#d49a34"/>
      <path id="Path_1152" data-name="Path 1152" d="M276.65,384.948,38.788,342.282c-1.049-.186-1.9-1.6-1.9-3.154V45.841c0-1.556.849-2.969,1.9-3.154L276.65.043c1.734-.307,3.147,1.063,3.147,3.076V381.872C279.8,383.913,278.384,385.255,276.65,384.948Z" transform="translate(-10.566 78.222)" fill="#10cdf9"/>
      <path id="Path_1153" data-name="Path 1153" d="M234.968,237.947c0,46.648-29.857,81.97-64.338,79.08-32.112-2.69-56.631-38.02-56.631-79.08s24.49-76.354,56.631-79.073C205.112,155.984,234.968,191.3,234.968,237.947Z" transform="translate(-32.65 32.767)" fill="#09618d"/>
      <path id="Path_1154" data-name="Path 1154" d="M224.37,245.287c0,35.359-22.443,62.575-48.767,60.884-24.976-1.613-44.243-28.829-44.243-60.884s19.267-59.271,44.243-60.877C201.927,182.719,224.37,209.935,224.37,245.287Z" transform="translate(-37.622 25.427)" fill="#0b8ecf"/>
      <path id="Path_1155" data-name="Path 1155" d="M203.456,261.211c0,11.96-7.457,21.486-16.491,21.279-8.87-.2-15.935-9.726-15.935-21.279s7.065-21.072,15.935-21.272C195.984,239.732,203.456,249.258,203.456,261.211Z" transform="translate(-48.984 9.503)" fill="#054564"/>
      <path id="Path_1156" data-name="Path 1156" d="M200.951,250.87a26.217,26.217,0,0,1,2.276,10.861c0,11.946-7.436,21.479-16.448,21.3-5.081-.1-9.562-3.275-12.459-8.121,2.74,6.272,7.85,10.583,13.8,10.7,9.041.2,16.5-9.327,16.5-21.286A25.525,25.525,0,0,0,200.951,250.87Z" transform="translate(-49.926 6.371)" fill="#fff" opacity="0.11"/>
      <path id="Path_1157" data-name="Path 1157" d="M194.325,347.5V333.977c0-1.862-2.205-1.97-2.205-.107v13.494C192.12,349.22,194.325,349.37,194.325,347.5Z" transform="translate(-55.024 -17.015)" fill="#054564"/>
      <path id="Path_1158" data-name="Path 1158" d="M194.325,198.981V185.466c0-1.862-2.205-1.727-2.205.136V199.1C192.12,200.951,194.325,200.851,194.325,198.981Z" transform="translate(-55.024 25.485)" fill="#054564"/>
      <path id="Path_1159" data-name="Path 1159" d="M132.194,271.35l9.462-.05c1.32,0,1.306-2.8,0-2.79l-9.462.078c-1.284,0-1.277,2.762,0,2.762Z" transform="translate(-37.586 1.319)" fill="#054564"/>
      <path id="Path_1160" data-name="Path 1160" d="M244.119,270.7l11.218-.057c1.57,0,1.563-3.054,0-3.04l-11.225.093c-1.527,0-1.52,3.011,0,3Z" transform="translate(-69.588 1.58)" fill="#054564"/>
      <path id="Path_1161" data-name="Path 1161" d="M151.077,325.4l6.715-9.205c.935-1.277-.578-3.283-1.513-2.005l-6.694,9.205C148.672,324.654,150.156,326.659,151.077,325.4Z" transform="translate(-42.76 -11.645)" fill="#054564"/>
      <path id="Path_1162" data-name="Path 1162" d="M228.707,218.391,236.263,208c1.056-1.427-.656-3.432-1.705-1.991l-7.528,10.354c-1.035,1.427.642,3.411,1.677,2Z" transform="translate(-64.93 19.362)" fill="#054564"/>
      <path id="Path_1163" data-name="Path 1163" d="M151.818,209.126l6.344,9.683c.885,1.342,2.476-.557,1.591-1.905l-6.365-9.683c-.871-1.32-2.44.585-1.57,1.905Z" transform="translate(-43.409 19.001)" fill="#054564"/>
      <path id="Path_1164" data-name="Path 1164" d="M225.025,320.743l7.136,10.818c.985,1.506,2.769-.357,1.777-1.862L226.8,318.874c-.97-1.477-2.726.392-1.755,1.87Z" transform="translate(-64.374 -12.951)" fill="#054564"/>
      <path id="Path_1165" data-name="Path 1165" d="M326,310.7h-.114c-2.276-.15-4.11-2.455-4.11-5.159v-120c0-2.7,1.834-5,4.11-5.145H326c2.284-.143,4.146,1.955,4.146,4.681V305.987C330.15,308.713,328.288,310.8,326,310.7Z" transform="translate(-92.16 26.56)" fill="#93e8fc"/>
      <path id="Path_1166" data-name="Path 1166" d="M372.88.06H379a1.427,1.427,0,0,1,1.427,1.427V383.559A1.427,1.427,0,0,1,379,384.986H372.88Z" transform="translate(-106.795 78.205)" fill="#798e91"/>
      <path id="Path_1167" data-name="Path 1167" d="M44.462,156.463v-20.1a9.391,9.391,0,0,0-18.782,0v20.1Z" transform="translate(-7.355 41.857)" fill="#798e91"/>
      <path id="Path_1168" data-name="Path 1168" d="M25.66,172v20.1a9.391,9.391,0,1,0,18.782,0V172Z" transform="translate(-7.349 28.96)" fill="#798e91"/>
      <path id="Path_1169" data-name="Path 1169" d="M41.109,346.814v-20.1a9.4,9.4,0,0,0-18.789,0v20.1Z" transform="translate(-6.393 -12.733)" fill="#798e91"/>
      <path id="Path_1170" data-name="Path 1170" d="M22.32,362.24v20.1a9.4,9.4,0,0,0,18.789,0v-20.1Z" transform="translate(-6.393 -25.526)" fill="#798e91"/>
    </g>
  </g>
</svg>
