<svg xmlns="http://www.w3.org/2000/svg" width="192" height="192" viewBox="0 0 192 192">
  <g id="Group_2153" data-name="Group 2153" transform="translate(-1383 -1229.479)">
    <path id="Icon_awesome-link" data-name="Icon awesome-link" d="M32.193,18.274a14.974,14.974,0,0,1,.035,21.152l-.035.036L25.57,46.085A14.982,14.982,0,0,1,4.382,24.9L8.039,21.24a1.576,1.576,0,0,1,2.69,1.045,18.163,18.163,0,0,0,.955,5.2,1.586,1.586,0,0,1-.373,1.637l-1.29,1.29a7.1,7.1,0,1,0,9.972,10.1l6.624-6.623a7.1,7.1,0,0,0,0-10.037A7.384,7.384,0,0,0,25.6,23a1.581,1.581,0,0,1-.685-1.243,3.926,3.926,0,0,1,1.153-2.938l2.075-2.075a1.583,1.583,0,0,1,2.029-.171,15.03,15.03,0,0,1,2.023,1.7ZM46.085,4.381a15,15,0,0,0-21.188,0L18.273,11l-.035.036A14.985,14.985,0,0,0,20.3,33.888a1.584,1.584,0,0,0,2.029-.171L24.4,31.642A3.926,3.926,0,0,0,25.553,28.7a1.581,1.581,0,0,0-.685-1.243,7.384,7.384,0,0,1-1.019-.845,7.1,7.1,0,0,1,0-10.037l6.624-6.623a7.1,7.1,0,1,1,9.972,10.1l-1.29,1.29a1.586,1.586,0,0,0-.373,1.637,18.163,18.163,0,0,1,.955,5.2,1.576,1.576,0,0,0,2.69,1.045l3.657-3.657a15,15,0,0,0,0-21.188Z" transform="translate(1410.5 1259.765)" fill="#ffbc46"/>
    <path id="Icon_awesome-link-2" data-name="Icon awesome-link" d="M43.7,24.8a20.325,20.325,0,0,1,.048,28.71l-.048.05-8.991,8.991A20.336,20.336,0,0,1,5.947,33.794l4.964-4.964a2.139,2.139,0,0,1,3.652,1.419,24.653,24.653,0,0,0,1.3,7.053,2.153,2.153,0,0,1-.506,2.222L13.6,41.275A9.633,9.633,0,1,0,27.138,54.985L36.129,46a9.63,9.63,0,0,0,0-13.624,10.022,10.022,0,0,0-1.384-1.146,2.146,2.146,0,0,1-.929-1.687,5.329,5.329,0,0,1,1.565-3.988L38.2,22.734a2.149,2.149,0,0,1,2.754-.232A20.4,20.4,0,0,1,43.7,24.8ZM62.553,5.947a20.359,20.359,0,0,0-28.759,0L24.8,14.937l-.048.05A20.34,20.34,0,0,0,27.548,46a2.149,2.149,0,0,0,2.754-.232l2.817-2.817a5.329,5.329,0,0,0,1.565-3.988,2.146,2.146,0,0,0-.929-1.687,10.022,10.022,0,0,1-1.384-1.146,9.63,9.63,0,0,1,0-13.624l8.991-8.989A9.633,9.633,0,1,1,54.9,27.224l-1.751,1.751A2.153,2.153,0,0,0,52.64,31.2a24.653,24.653,0,0,1,1.3,7.053,2.139,2.139,0,0,0,3.652,1.419l4.964-4.964a20.357,20.357,0,0,0,0-28.759Z" transform="matrix(0.259, -0.966, 0.966, 0.259, 1479, 1319.734)" fill="#0b8ecf"/>
    <path id="Icon_awesome-link-3" data-name="Icon awesome-link" d="M53.283,30.244a24.784,24.784,0,0,1,.059,35.008c-.018.02-.039.041-.059.06L42.32,76.276A24.8,24.8,0,0,1,7.252,41.207l6.053-6.053a2.608,2.608,0,0,1,4.453,1.73,30.061,30.061,0,0,0,1.581,8.6,2.626,2.626,0,0,1-.617,2.71L16.587,50.33a11.746,11.746,0,1,0,16.5,16.717L44.054,56.086a11.743,11.743,0,0,0,0-16.612,12.221,12.221,0,0,0-1.687-1.4,2.616,2.616,0,0,1-1.133-2.057,6.5,6.5,0,0,1,1.908-4.863l3.435-3.435a2.621,2.621,0,0,1,3.358-.282,24.875,24.875,0,0,1,3.348,2.805ZM76.275,7.251a24.825,24.825,0,0,0-35.068,0L30.244,18.214c-.02.02-.041.041-.059.06a24.8,24.8,0,0,0,3.406,37.813,2.621,2.621,0,0,0,3.358-.282l3.435-3.435a6.5,6.5,0,0,0,1.908-4.862,2.616,2.616,0,0,0-1.133-2.057,12.221,12.221,0,0,1-1.687-1.4,11.743,11.743,0,0,1,0-16.612L50.435,16.48A11.746,11.746,0,1,1,66.94,33.2L64.8,35.332a2.626,2.626,0,0,0-.617,2.71,30.061,30.061,0,0,1,1.581,8.6,2.608,2.608,0,0,0,4.453,1.73l6.053-6.053a24.823,24.823,0,0,0,0-35.068Z" transform="matrix(0.574, 0.819, -0.819, 0.574, 1478.922, 1295.516)" fill="#727071"/>
    <g id="Ellipse_261" data-name="Ellipse 261" transform="translate(1383 1229.479)" fill="none" stroke="#727071" stroke-width="10">
      <circle cx="96" cy="96" r="96" stroke="none"/>
      <circle cx="96" cy="96" r="91" fill="none"/>
    </g>
  </g>
</svg>
