<svg id="Layer_1" data-name="Layer 1" xmlns="http://www.w3.org/2000/svg" xmlns:xlink="http://www.w3.org/1999/xlink" viewBox="0 0 512 512"><defs><style>.cls-1{fill:#a64d00;}.cls-2{fill:url(#radial-gradient);}.cls-3{fill:#d67400;}.cls-4{opacity:0.15;}.cls-5{fill:#fff;}.cls-6{fill:#231f20;}.cls-7{fill:url(#radial-gradient-2);}.cls-8{fill:#ffed9e;}.cls-9{fill:#ffa400;}.cls-10{fill:#fb0;}.cls-11{fill:#c48700;}.cls-12{fill:#fef;}.cls-13{fill:#ffd300;}</style><radialGradient id="radial-gradient" cx="256" cy="249.98" r="213.22" gradientUnits="userSpaceOnUse"><stop offset="0" stop-color="#6d6e71"/><stop offset="1" stop-color="#231f20"/></radialGradient><radialGradient id="radial-gradient-2" cx="671.57" cy="241.96" r="168.39" gradientTransform="matrix(0.75, 0, 0, 0.75, -249.44, 79.59)" gradientUnits="userSpaceOnUse"><stop offset="0" stop-color="#f9ed32"/><stop offset="1" stop-color="#f7941d"/></radialGradient></defs><polygon class="cls-1" points="42.73 382.43 42.73 129.57 256 3.21 469.27 129.57 469.27 382.43 256 508.79 42.73 382.43"/><path d="M256,6.43,466.51,131.15v249.7L256,505.57,45.49,380.85V131.15L256,6.43M256,0,40,128V384L256,512,472,384V128L256,0Z"/><path class="cls-2" d="M256,477.37a8.19,8.19,0,0,1-4.12-1.11L62.09,366.69A8.25,8.25,0,0,1,58,359.55V140.41a8.26,8.26,0,0,1,4.12-7.15L251.88,23.69a8.27,8.27,0,0,1,8.24,0L449.91,133.26a8.26,8.26,0,0,1,4.12,7.15V359.55a8.25,8.25,0,0,1-4.12,7.14L260.12,476.26A8.19,8.19,0,0,1,256,477.37Z"/><path class="cls-3" d="M256,30.83,445.78,140.4V359.55L256,469.12,66.22,359.55V140.4L256,30.83m0-16.49a16.54,16.54,0,0,0-8.25,2.21L58,126.12a16.5,16.5,0,0,0-8.25,14.28V359.55A16.49,16.49,0,0,0,58,373.83L247.75,483.4a16.5,16.5,0,0,0,16.5,0L454,373.83a16.49,16.49,0,0,0,8.25-14.28V140.4A16.5,16.5,0,0,0,454,126.12L264.25,16.55A16.54,16.54,0,0,0,256,14.34Z"/><g class="cls-4"><rect class="cls-5" x="204.91" y="73.86" width="54.83" height="379.57" transform="translate(-100.7 151.48) rotate(-30)"/></g><g class="cls-4"><rect class="cls-5" x="279.91" y="41.29" width="17.64" height="379.57" transform="translate(-76.86 175.33) rotate(-30)"/></g><g class="cls-4"><rect class="cls-5" x="321.48" y="17.3" width="17.64" height="379.57" transform="translate(-59.29 192.89) rotate(-30)"/></g><g class="cls-4"><rect class="cls-5" x="204.49" y="90.03" width="54.83" height="345.83" transform="translate(-100.4 151.18) rotate(-30)"/></g><g class="cls-4"><rect class="cls-5" x="279.5" y="57.46" width="17.64" height="345.83" transform="matrix(0.87, -0.5, 0.5, 0.87, -76.56, 175.03)"/></g><g class="cls-4"><rect class="cls-5" x="321.06" y="33.47" width="17.64" height="345.83" transform="translate(-58.99 192.59) rotate(-30)"/></g><polygon class="cls-6" points="183.56 427.29 66.22 359.55 66.22 276.44 130.69 202.3 249.58 341.67 183.56 427.29"/><polygon class="cls-7" points="253.26 377.77 390.49 261.74 255.08 147.88 117.86 263.9 253.26 377.77"/><path d="M255.28,72.22l107.22,127-107.22,127-107.22-127,107.22-127m0-20.58a9.42,9.42,0,0,0-7.19,3.53L133.67,190.71a13.66,13.66,0,0,0,0,17L248.09,343.29a9.1,9.1,0,0,0,14.38,0L376.89,207.74a13.66,13.66,0,0,0,0-17L262.47,55.17a9.42,9.42,0,0,0-7.19-3.53Z"/><polyline class="cls-8" points="255.28 199.23 192.89 199.23 224.08 135.63 255.28 72.04"/><polygon class="cls-9" points="255.3 326.42 309.35 262.65 362.65 199.23 341.17 199.23 317.67 199.23 286.24 262.82 255.3 326.42"/><polygon class="cls-10" points="255.25 326.42 201.21 262.65 147.91 199.23 169.39 199.23 192.88 199.23 224.32 262.82 255.25 326.42"/><polygon class="cls-11" points="255.3 72.04 309.35 135.81 362.65 199.23 341.17 199.23 317.67 199.23 286.24 135.63 255.3 72.04"/><polygon class="cls-9" points="255.25 72.04 201.21 135.81 147.91 199.23 169.39 199.23 192.88 199.23 224.32 135.63 255.25 72.04"/><polyline class="cls-10" points="255.28 199.23 317.67 199.23 286.47 135.63 255.28 72.04"/><polyline class="cls-12" points="255.28 199.23 192.89 199.23 224.08 262.82 255.28 326.42"/><polyline class="cls-8" points="255.28 199.23 317.67 199.23 286.47 262.82 255.28 326.42"/><path d="M255.28,244.28l73.16,86.66L255.28,417.6l-73.16-86.66,73.16-86.66m0-24.54a7.11,7.11,0,0,0-5.42,2.66L163.65,324.52a10.31,10.31,0,0,0,0,12.84l86.21,102.12a6.85,6.85,0,0,0,10.84,0l86.21-102.12a10.31,10.31,0,0,0,0-12.84L260.7,222.4a7.11,7.11,0,0,0-5.42-2.66Z"/><polyline class="cls-8" points="255.28 331.33 212.8 331.33 234.04 288.03 255.28 244.74"/><polygon class="cls-9" points="255.3 417.92 292.09 374.51 328.38 331.33 313.76 331.33 297.76 331.33 276.36 374.63 255.3 417.92"/><polygon class="cls-10" points="255.26 417.92 218.47 374.51 182.18 331.33 196.8 331.33 212.8 331.33 234.2 374.63 255.26 417.92"/><polygon class="cls-11" points="255.3 244.74 292.09 288.15 328.38 331.33 313.76 331.33 297.76 331.33 276.36 288.03 255.3 244.74"/><polygon class="cls-9" points="255.26 244.74 218.47 288.15 182.18 331.33 196.8 331.33 212.8 331.33 234.2 288.03 255.26 244.74"/><polyline class="cls-10" points="255.28 331.33 297.76 331.33 276.52 288.03 255.28 244.74"/><polyline class="cls-12" points="255.28 331.33 212.8 331.33 234.04 374.63 255.28 417.92"/><polyline class="cls-8" points="255.28 331.33 297.76 331.33 276.52 374.63 255.28 417.92"/><path class="cls-13" d="M256,30.83,445.78,140.4V359.55L256,469.12,66.22,359.55V140.4L256,30.83m0-5.22a5.19,5.19,0,0,0-2.61.7L63.6,135.88A5.23,5.23,0,0,0,61,140.4V359.55a5.23,5.23,0,0,0,2.61,4.52L253.39,473.64a5.22,5.22,0,0,0,5.22,0L448.4,364.07a5.23,5.23,0,0,0,2.61-4.52V140.4a5.23,5.23,0,0,0-2.61-4.52L258.61,26.31a5.19,5.19,0,0,0-2.61-.7Z"/></svg>