<svg id="Layer_1" data-name="Layer 1" xmlns="http://www.w3.org/2000/svg" xmlns:xlink="http://www.w3.org/1999/xlink" viewBox="0 0 584.36 512"><defs><style>.cls-1{fill:url(#radial-gradient);}.cls-2{fill:url(#radial-gradient-2);}.cls-3{fill:url(#radial-gradient-3);}.cls-4{fill:url(#radial-gradient-4);}.cls-5{fill:#004868;}.cls-6{fill:url(#radial-gradient-5);}.cls-7{fill:#008aa1;}.cls-8{fill:#00fffd;}.cls-9{opacity:0.15;}.cls-10{fill:#fff;}.cls-11{fill:#231f20;}.cls-12{fill:url(#radial-gradient-6);}.cls-13{fill:#94cdff;}.cls-14{fill:#0078ff;}.cls-15{fill:#00ffde;}.cls-16{fill:#0076c4;}.cls-17{fill:#fff0ed;}.cls-18{fill:url(#radial-gradient-7);}.cls-19{fill:url(#radial-gradient-8);}</style><radialGradient id="radial-gradient" cx="146.32" cy="342.22" r="20.27" gradientTransform="translate(-682.17 -1567.71) scale(5.22 5.22)" gradientUnits="userSpaceOnUse"><stop offset="0" stop-color="#00ecbd"/><stop offset="1" stop-color="#00d3f7"/></radialGradient><radialGradient id="radial-gradient-2" cx="227.29" cy="342.22" r="20.27" xlink:href="#radial-gradient"/><radialGradient id="radial-gradient-3" cx="-4039.82" cy="348.44" r="20.27" gradientTransform="matrix(-5.22, 0, 0, 5.22, -20599.75, -1567.71)" xlink:href="#radial-gradient"/><radialGradient id="radial-gradient-4" cx="-3957.85" cy="348.44" r="20.27" gradientTransform="matrix(-5.22, 0, 0, 5.22, -20599.75, -1567.71)" xlink:href="#radial-gradient"/><radialGradient id="radial-gradient-5" cx="186.79" cy="347.92" r="40.81" gradientTransform="translate(-682.17 -1567.71) scale(5.22 5.22)" gradientUnits="userSpaceOnUse"><stop offset="0" stop-color="#6e6d71"/><stop offset="1" stop-color="#231f20"/></radialGradient><radialGradient id="radial-gradient-6" cx="-134.92" cy="-1314.25" r="24.88" gradientTransform="translate(933.67 6436.71) scale(4.74)" gradientUnits="userSpaceOnUse"><stop offset="0" stop-color="#1516f9"/><stop offset="1" stop-color="#00f7ca"/></radialGradient><radialGradient id="radial-gradient-7" cx="171.49" cy="369.83" r="17.78" xlink:href="#radial-gradient"/><radialGradient id="radial-gradient-8" cx="202.1" cy="369.83" r="17.78" xlink:href="#radial-gradient"/></defs><polygon class="cls-1" points="45 285.95 6.92 90.76 119.53 154.46 157.6 349.65 45 285.95"/><path d="M10.58,95.83l106.61,60.31L154,344.59,47.34,284.27,10.58,95.83m-4-7.92a2.38,2.38,0,0,0-2.33,2.83l38.2,195.82a2.37,2.37,0,0,0,1.16,1.61l113.16,64a2.4,2.4,0,0,0,1.16.31,2.38,2.38,0,0,0,2.33-2.83l-38.2-195.82a2.37,2.37,0,0,0-1.16-1.61L7.75,88.23a2.31,2.31,0,0,0-1.16-.32Z"/><polygon class="cls-2" points="468.04 154.46 580.64 90.76 542.56 285.95 429.96 349.65 468.04 154.46"/><path d="M582.39,92.77h0M577,95.83,540.23,284.27,433.61,344.59l36.76-188.45L577,95.83m-106.37,59h0M581,87.91a2.35,2.35,0,0,0-1.17.32l-113.16,64a2.36,2.36,0,0,0-1.15,1.61L427.3,349.67a2.37,2.37,0,0,0,2.32,2.83,2.41,2.41,0,0,0,1.17-.31l113.16-64a2.36,2.36,0,0,0,1.15-1.61L583.3,90.74A2.37,2.37,0,0,0,581,87.91Z"/><polygon class="cls-3" points="469.05 186.94 581.65 123.25 543.57 318.44 430.97 382.14 469.05 186.94"/><path d="M583.4,125.26h0m-5.4,3L541.24,316.76,434.62,377.07l36.76-188.44L578,128.31m-106.37,59h0M582,120.4a2.33,2.33,0,0,0-1.17.31l-113.16,64a2.36,2.36,0,0,0-1.15,1.6l-38.2,195.83a2.37,2.37,0,0,0,2.32,2.83,2.32,2.32,0,0,0,1.17-.32l113.16-64a2.36,2.36,0,0,0,1.15-1.61l38.2-195.83A2.36,2.36,0,0,0,582,120.4Z"/><polygon class="cls-4" points="40.79 318.44 2.71 123.25 115.31 186.94 153.39 382.14 40.79 318.44"/><path d="M6.36,128.31,113,188.63l36.76,188.44L43.12,316.76,6.36,128.31m-4-7.91a2.36,2.36,0,0,0-2.32,2.82l38.2,195.83a2.36,2.36,0,0,0,1.15,1.61l113.16,64a2.32,2.32,0,0,0,1.17.32,2.37,2.37,0,0,0,2.32-2.83l-38.2-195.83a2.36,2.36,0,0,0-1.15-1.6l-113.16-64a2.33,2.33,0,0,0-1.17-.31Z"/><polygon class="cls-5" points="80.45 382.43 80.45 129.57 293.72 3.21 506.99 129.57 506.99 382.43 293.72 508.79 80.45 382.43"/><path d="M293.72,6.43,504.23,131.15v249.7L293.72,505.57,83.22,380.85V131.15L293.72,6.43m0-6.43-216,128V384l216,128,216-128V128L293.72,0Z"/><path class="cls-6" d="M293.72,477.37a8.19,8.19,0,0,1-4.12-1.11L99.81,366.69a8.25,8.25,0,0,1-4.12-7.14V140.41a8.26,8.26,0,0,1,4.12-7.15L289.6,23.69a8.27,8.27,0,0,1,8.24,0L487.63,133.26a8.26,8.26,0,0,1,4.12,7.15V359.55a8.25,8.25,0,0,1-4.12,7.14L297.84,476.26A8.17,8.17,0,0,1,293.72,477.37Z"/><path class="cls-7" d="M293.72,30.83,483.51,140.4V359.55L293.72,469.12,103.94,359.55V140.4L293.72,30.83m0-16.49a16.54,16.54,0,0,0-8.25,2.21L95.69,126.12a16.5,16.5,0,0,0-8.25,14.28V359.55a16.49,16.49,0,0,0,8.25,14.28L285.47,483.4a16.5,16.5,0,0,0,16.5,0L491.75,373.83A16.49,16.49,0,0,0,500,359.55V140.4a16.5,16.5,0,0,0-8.25-14.28L302,16.55a16.52,16.52,0,0,0-8.25-2.21Z"/><path class="cls-8" d="M293.72,30.83,483.51,140.4V359.55L293.72,469.12,103.94,359.55V140.4L293.72,30.83m0-5.22a5.19,5.19,0,0,0-2.61.7L101.32,135.88a5.23,5.23,0,0,0-2.61,4.52V359.55a5.22,5.22,0,0,0,2.61,4.52L291.11,473.65a5.22,5.22,0,0,0,5.22,0L486.12,364.07a5.22,5.22,0,0,0,2.61-4.52V140.4a5.23,5.23,0,0,0-2.61-4.52L296.33,26.31a5.19,5.19,0,0,0-2.61-.7Z"/><g class="cls-9"><rect class="cls-10" x="242.63" y="73.86" width="54.83" height="379.57" transform="translate(-95.64 170.34) rotate(-30)"/></g><path class="cls-11" d="M234.23,434.76,103.94,359.55V269.77l59.67-65.09,126,150.45Z"/><g class="cls-9"><rect class="cls-10" x="317.63" y="41.29" width="17.64" height="379.57" transform="translate(-71.8 194.19) rotate(-30)"/></g><g class="cls-9"><rect class="cls-10" x="359.2" y="17.3" width="17.64" height="379.57" transform="translate(-54.24 211.75) rotate(-30)"/></g><g class="cls-9"><rect class="cls-10" x="242.78" y="90.96" width="54.83" height="345.83" transform="translate(-95.74 170.45) rotate(-30)"/></g><g class="cls-9"><rect class="cls-10" x="317.78" y="58.39" width="17.64" height="345.83" transform="translate(-71.9 194.29) rotate(-30)"/></g><g class="cls-9"><rect class="cls-10" x="359.35" y="34.4" width="17.64" height="345.83" transform="translate(-54.33 211.86) rotate(-30)"/></g><rect class="cls-12" x="175.76" y="85.28" width="235.97" height="235.97" transform="translate(229.77 -148.18) rotate(45)"/><polyline class="cls-13" points="293.72 204.68 228.26 204.68 260.99 137.95 293.72 71.23"/><polygon class="cls-14" points="293.75 338.13 350.45 271.23 406.38 204.68 383.84 204.68 359.19 204.68 326.2 271.4 293.75 338.13"/><polygon class="cls-15" points="293.69 338.13 236.99 271.23 181.06 204.68 203.6 204.68 228.25 204.68 261.24 271.4 293.69 338.13"/><polygon class="cls-16" points="293.75 71.23 350.45 138.13 406.38 204.68 383.84 204.68 359.19 204.68 326.2 137.95 293.75 71.23"/><polygon class="cls-14" points="293.69 71.23 236.99 138.13 181.06 204.68 203.6 204.68 228.25 204.68 261.24 137.95 293.69 71.23"/><polyline class="cls-15" points="293.72 204.68 359.19 204.68 326.45 137.95 293.72 71.23"/><polyline class="cls-17" points="293.72 204.68 228.26 204.68 260.99 271.4 293.72 338.13"/><polyline class="cls-13" points="293.72 204.68 359.19 204.68 326.45 271.4 293.72 338.13"/><path d="M293.72,70.79l113,133.89-113,133.89-113-133.89,113-133.89m0-20.23a9.84,9.84,0,0,0-7.51,3.68L166.72,195.79a14.28,14.28,0,0,0,0,17.78L286.21,355.12a9.5,9.5,0,0,0,15,0L420.72,213.57a14.25,14.25,0,0,0,0-17.78L301.23,54.24a9.83,9.83,0,0,0-7.51-3.68Z"/><polygon class="cls-18" points="190.97 429.11 165.47 242.27 236.59 299.77 262.1 486.61 190.97 429.11"/><path d="M172.43,254.62l59.27,47.92,23.44,171.73-59.27-47.92L172.43,254.62m-10.75-21.47a2.37,2.37,0,0,0-2.36,2.7L186,430.94a2.35,2.35,0,0,0,.86,1.52l77.61,62.74a2.31,2.31,0,0,0,1.47.54,2.38,2.38,0,0,0,2.36-2.7L241.62,298a2.38,2.38,0,0,0-.86-1.53l-77.61-62.74a2.3,2.3,0,0,0-1.47-.53Z"/><polygon class="cls-19" points="350.9 299.77 422.02 242.27 396.52 429.11 325.39 486.61 350.9 299.77"/><path d="M430.91,241.81h0m-15.84,12.81L391.62,426.35l-59.27,47.92,23.44-171.73,59.28-47.92m-58.84,44.74h0m69.59-66.21a2.32,2.32,0,0,0-1.48.53l-77.61,62.74a2.36,2.36,0,0,0-.85,1.53L319.24,493a2.38,2.38,0,0,0,2.36,2.7,2.33,2.33,0,0,0,1.48-.54l77.61-62.74a2.34,2.34,0,0,0,.85-1.52l26.64-195.09a2.37,2.37,0,0,0-2.36-2.7Z"/><g class="cls-9"><path class="cls-10" d="M392,378.73l4.16-30.34-27.44-48.61-7.27,6s-2,13.89-2,13.89S379.12,355.25,392,378.73Z"/></g><g class="cls-9"><path class="cls-10" d="M362.93,325.82l19.62,35.64,8.85-21.79-16.77-29.19"/></g><g class="cls-9"><path class="cls-10" d="M349.81,390.79l23.45,42.64L386,423.17s.51-3.82.53-3.84c-10.88-19.26-21.83-38.61-32.7-57.87"/></g><g class="cls-9"><path class="cls-10" d="M353.93,398.28l15.62,28.37,9.42-21-18.28-31.8"/></g></svg>