<svg id="Layer_1" data-name="Layer 1" xmlns="http://www.w3.org/2000/svg" xmlns:xlink="http://www.w3.org/1999/xlink" viewBox="0 0 512 512"><defs><style>.cls-1{fill:#a60003;}.cls-2{fill:url(#radial-gradient);}.cls-3{fill:#d60037;}.cls-4{opacity:0.15;}.cls-5{fill:#fff;}.cls-6{fill:#231f20;}.cls-7{fill:url(#radial-gradient-2);}.cls-8{fill:#ffa89e;}.cls-9{fill:#ff0056;}.cls-10{fill:#ff0007;}.cls-11{fill:#c40023;}.cls-12{fill:#eef4ff;}.cls-13{fill:#ff98ab;}.cls-14{fill:url(#radial-gradient-3);}.cls-15{fill:url(#radial-gradient-4);}</style><radialGradient id="radial-gradient" cx="256" cy="249.98" r="213.22" gradientUnits="userSpaceOnUse"><stop offset="0" stop-color="#6d716d"/><stop offset="1" stop-color="#231f20"/></radialGradient><radialGradient id="radial-gradient-2" cx="-186.24" cy="-1141.33" r="105.15" gradientTransform="matrix(0.65, 0.81, -0.65, 0.81, -369.1, 1296.22)" gradientUnits="userSpaceOnUse"><stop offset="0" stop-color="#f97615"/><stop offset="1" stop-color="#f70042"/></radialGradient><radialGradient id="radial-gradient-3" cx="315.31" cy="375.82" r="72.44" gradientUnits="userSpaceOnUse"><stop offset="0" stop-color="#ec008c"/><stop offset="1" stop-color="#f70042"/></radialGradient><radialGradient id="radial-gradient-4" cx="196.69" cy="375.82" r="72.44" xlink:href="#radial-gradient-3"/></defs><polygon class="cls-1" points="42.73 382.43 42.73 129.57 256 3.21 469.27 129.57 469.27 382.43 256 508.79 42.73 382.43"/><path d="M256,6.43,466.51,131.15v249.7L256,505.57,45.49,380.85V131.15L256,6.43M256,0,40,128V384L256,512,472,384V128L256,0Z"/><path class="cls-2" d="M256,477.37a8.19,8.19,0,0,1-4.12-1.11L62.09,366.69A8.25,8.25,0,0,1,58,359.55V140.41a8.26,8.26,0,0,1,4.12-7.15L251.88,23.69a8.27,8.27,0,0,1,8.24,0L449.91,133.26a8.26,8.26,0,0,1,4.12,7.15V359.55a8.25,8.25,0,0,1-4.12,7.14L260.12,476.26A8.19,8.19,0,0,1,256,477.37Z"/><path class="cls-3" d="M256,30.83,445.78,140.4V359.55L256,469.12,66.22,359.55V140.4L256,30.83m0-16.49a16.54,16.54,0,0,0-8.25,2.21L58,126.12a16.5,16.5,0,0,0-8.25,14.28V359.55A16.49,16.49,0,0,0,58,373.83L247.75,483.4a16.5,16.5,0,0,0,16.5,0L454,373.83a16.49,16.49,0,0,0,8.25-14.28V140.4A16.5,16.5,0,0,0,454,126.12L264.25,16.55A16.54,16.54,0,0,0,256,14.34Z"/><g class="cls-4"><rect class="cls-5" x="204.91" y="73.86" width="54.83" height="379.57" transform="translate(-100.7 151.48) rotate(-30)"/></g><g class="cls-4"><rect class="cls-5" x="279.91" y="41.29" width="17.64" height="379.57" transform="translate(-76.86 175.33) rotate(-30)"/></g><g class="cls-4"><rect class="cls-5" x="321.48" y="17.3" width="17.64" height="379.57" transform="translate(-59.29 192.89) rotate(-30)"/></g><g class="cls-4"><rect class="cls-5" x="204.49" y="90.03" width="54.83" height="345.83" transform="translate(-100.4 151.18) rotate(-30)"/></g><g class="cls-4"><rect class="cls-5" x="279.5" y="57.46" width="17.64" height="345.83" transform="translate(-76.56 175.03) rotate(-30)"/></g><g class="cls-4"><rect class="cls-5" x="321.06" y="33.47" width="17.64" height="345.83" transform="translate(-58.99 192.59) rotate(-30)"/></g><polygon class="cls-6" points="183.56 427.29 66.22 359.55 66.22 281.67 130.69 207.52 249.58 341.67 183.56 427.29"/><polygon class="cls-7" points="255.25 392.35 117.78 222.21 255.25 52.07 392.73 222.21 255.25 392.35"/><path d="M256.13,63.9l82,132.11a4,4,0,0,1,0,1.19l-82,132.11-82-132.12a3.89,3.89,0,0,1,0-1.18l82-132.11m0-27.06c-2.07,0-4.14,1.27-5.72,3.82L159.35,187.38c-3.16,5.09-3.16,13.35,0,18.44l91.07,146.73c1.58,2.54,3.65,3.82,5.72,3.82s4.14-1.28,5.72-3.82l91.06-146.73c3.16-5.09,3.16-13.34,0-18.43L261.85,40.66c-1.58-2.55-3.65-3.82-5.72-3.82Z"/><polyline class="cls-8" points="256 196.6 208.16 196.6 232.08 130.27 256 63.93"/><polygon class="cls-9" points="256.02 329.26 297.46 262.75 338.34 196.6 321.87 196.6 303.85 196.6 279.74 262.93 256.02 329.26"/><polygon class="cls-10" points="255.98 329.26 214.53 262.75 173.66 196.6 190.13 196.6 208.15 196.6 232.26 262.93 255.98 329.26"/><polygon class="cls-11" points="256.02 63.93 297.46 130.44 338.34 196.6 321.87 196.6 303.85 196.6 279.74 130.27 256.02 63.93"/><polygon class="cls-9" points="255.98 63.93 214.53 130.44 173.66 196.6 190.13 196.6 208.15 196.6 232.26 130.27 255.98 63.93"/><polyline class="cls-10" points="256 196.6 303.85 196.6 279.92 130.27 256 63.93"/><polyline class="cls-12" points="256 196.6 208.16 196.6 232.08 262.93 256 329.26"/><polyline class="cls-8" points="256 196.6 303.85 196.6 279.92 262.93 256 329.26"/><path class="cls-13" d="M256,30.83,445.78,140.4V359.55L256,469.12,66.22,359.55V140.4L256,30.83m0-5.22a5.19,5.19,0,0,0-2.61.7L63.6,135.88A5.23,5.23,0,0,0,61,140.4V359.55a5.22,5.22,0,0,0,2.61,4.52L253.39,473.65a5.22,5.22,0,0,0,5.22,0L448.4,364.07a5.22,5.22,0,0,0,2.61-4.52V140.4a5.23,5.23,0,0,0-2.61-4.52L258.61,26.31a5.19,5.19,0,0,0-2.61-.7Z"/><polygon class="cls-14" points="242.87 382.98 387.75 303.38 308.15 448.26 242.87 382.98"/><path d="M370,321.11,306.51,436.72l-52.1-52.1L370,321.11m35.45-35.45Zm0,0L231.32,381.33l78.48,78.48,95.67-174.15Z"/><polygon class="cls-15" points="124.25 303.38 269.13 382.98 203.85 448.26 124.25 303.38"/><path d="M142,321.11l115.61,63.51-52.1,52.1L142,321.11m-35.45-35.45L202.2,459.81l78.48-78.48L106.53,285.66Z"/><g class="cls-4"><polygon class="cls-5" points="315.29 415.45 334.14 381.27 317.82 352.62 294.64 365.22 284.76 370.8 315.29 415.45"/></g><g class="cls-4"><polygon class="cls-5" points="323.7 400.2 334.14 381.27 317.64 352.71 302.17 361.21 323.7 400.2"/></g></svg>