<svg id="Layer_1" data-name="Layer 1" xmlns="http://www.w3.org/2000/svg" xmlns:xlink="http://www.w3.org/1999/xlink" viewBox="0 0 512 512"><defs><style>.cls-1{fill:#006838;}.cls-2{fill:url(#radial-gradient);}.cls-3{fill:#00a14b;}.cls-4{fill:#00ff4b;}.cls-5{opacity:0.15;}.cls-6{fill:#fff;}.cls-7{fill:#231f20;}.cls-8{fill:#95ff99;}.cls-9{fill:#00ff18;}.cls-10{fill:#75ff01;}.cls-11{fill:#03c400;}.cls-12{fill:#fef;}</style><radialGradient id="radial-gradient" cx="256" cy="249.98" r="213.22" gradientUnits="userSpaceOnUse"><stop offset="0" stop-color="#6d6e71"/><stop offset="1" stop-color="#231f20"/></radialGradient></defs><polygon class="cls-1" points="42.73 382.43 42.73 129.57 256 3.21 469.27 129.57 469.27 382.43 256 508.79 42.73 382.43"/><path d="M256,6.43,466.51,131.15v249.7L256,505.57,45.49,380.85V131.15L256,6.43M256,0,40,128V384L256,512,472,384V128L256,0Z"/><path class="cls-2" d="M256,477.37a8.19,8.19,0,0,1-4.12-1.11L62.09,366.69A8.25,8.25,0,0,1,58,359.55V140.41a8.26,8.26,0,0,1,4.12-7.15L251.88,23.69a8.27,8.27,0,0,1,8.24,0L449.91,133.26a8.26,8.26,0,0,1,4.12,7.15V359.55a8.25,8.25,0,0,1-4.12,7.14L260.12,476.26A8.19,8.19,0,0,1,256,477.37Z"/><path class="cls-3" d="M256,30.83,445.78,140.4V359.55L256,469.12,66.22,359.55V140.4L256,30.83m0-16.49a16.54,16.54,0,0,0-8.25,2.21L58,126.12a16.5,16.5,0,0,0-8.25,14.28V359.55A16.49,16.49,0,0,0,58,373.83L247.75,483.4a16.5,16.5,0,0,0,16.5,0L454,373.83a16.49,16.49,0,0,0,8.25-14.28V140.4A16.5,16.5,0,0,0,454,126.12L264.25,16.55A16.54,16.54,0,0,0,256,14.34Z"/><path class="cls-4" d="M256,30.83,445.78,140.4V359.55L256,469.12,66.22,359.55V140.4L256,30.83m0-5.22a5.19,5.19,0,0,0-2.61.7L63.6,135.88A5.23,5.23,0,0,0,61,140.4V359.55a5.22,5.22,0,0,0,2.61,4.52L253.39,473.65a5.22,5.22,0,0,0,5.22,0L448.4,364.07a5.22,5.22,0,0,0,2.61-4.52V140.4a5.23,5.23,0,0,0-2.61-4.52L258.61,26.31a5.19,5.19,0,0,0-2.61-.7Z"/><g class="cls-5"><rect class="cls-6" x="204.91" y="73.86" width="54.83" height="379.57" transform="translate(-100.7 151.48) rotate(-30)"/></g><rect class="cls-7" x="110.59" y="254.72" width="139.14" height="180.54" transform="matrix(0.5, -0.87, 0.87, 0.5, -208.69, 328.53)"/><g class="cls-5"><rect class="cls-6" x="279.91" y="41.29" width="17.64" height="379.57" transform="translate(-76.86 175.33) rotate(-30)"/></g><g class="cls-5"><rect class="cls-6" x="321.48" y="17.3" width="17.64" height="379.57" transform="matrix(0.87, -0.5, 0.5, 0.87, -59.29, 192.89)"/></g><g class="cls-5"><rect class="cls-6" x="205.05" y="90.96" width="54.83" height="345.83" transform="translate(-100.79 151.59) rotate(-30)"/></g><g class="cls-5"><rect class="cls-6" x="280.06" y="58.39" width="17.64" height="345.83" transform="translate(-76.95 175.43) rotate(-30)"/></g><g class="cls-5"><rect class="cls-6" x="321.62" y="34.4" width="17.64" height="345.83" transform="translate(-59.38 193) rotate(-30)"/></g><polyline class="cls-8" points="256 249.98 193.61 249.98 224.81 186.38 256 122.79"/><polygon class="cls-9" points="256.02 377.17 310.07 313.4 363.37 249.98 341.89 249.98 318.39 249.98 286.96 313.57 256.02 377.17"/><polygon class="cls-10" points="255.97 377.17 201.93 313.4 148.63 249.98 170.11 249.98 193.61 249.98 225.04 313.57 255.97 377.17"/><polygon class="cls-11" points="256.02 122.79 310.07 186.55 363.37 249.98 341.89 249.98 318.39 249.98 286.96 186.38 256.02 122.79"/><polygon class="cls-9" points="255.97 122.79 201.93 186.55 148.63 249.98 170.11 249.98 193.61 249.98 225.04 186.38 255.97 122.79"/><polyline class="cls-10" points="256 249.98 318.39 249.98 287.19 186.38 256 122.79"/><polyline class="cls-12" points="256 249.98 193.61 249.98 224.81 313.57 256 377.17"/><polyline class="cls-8" points="256 249.98 318.39 249.98 287.19 313.57 256 377.17"/><path d="M256,123,363.22,250,256,377,148.78,250,256,123m0-20.58a9.42,9.42,0,0,0-7.19,3.53L134.39,241.46a13.66,13.66,0,0,0,0,17L248.81,394a9.09,9.09,0,0,0,14.38,0L377.61,258.49a13.66,13.66,0,0,0,0-17L263.19,105.92a9.42,9.42,0,0,0-7.19-3.53Z"/></svg>