<svg id="Layer_1" data-name="Layer 1" xmlns="http://www.w3.org/2000/svg" xmlns:xlink="http://www.w3.org/1999/xlink" viewBox="0 0 512 512"><defs><style>.cls-1{fill:#600068;}.cls-2{fill:url(#radial-gradient);}.cls-3{fill:#7c00a1;}.cls-4{fill:#e993ff;}.cls-5{opacity:0.15;}.cls-6{fill:#fff;}.cls-7{fill:#231f20;}.cls-8{fill:url(#radial-gradient-2);}.cls-9{fill:url(#radial-gradient-3);}.cls-10{fill:url(#radial-gradient-4);}.cls-11{fill:url(#radial-gradient-5);}.cls-12{fill:url(#radial-gradient-6);}.cls-13{fill:#ff94f7;}.cls-14{fill:#f0d;}.cls-15{fill:#8a00ff;}.cls-16{fill:#c400c2;}.cls-17{fill:#fffeed;}</style><radialGradient id="radial-gradient" cx="257.64" cy="249.98" r="213.22" gradientUnits="userSpaceOnUse"><stop offset="0" stop-color="#716d6d"/><stop offset="1" stop-color="#231f20"/></radialGradient><radialGradient id="radial-gradient-2" cx="416.04" cy="165.26" r="106.93" gradientUnits="userSpaceOnUse"><stop offset="0" stop-color="#7700ec"/><stop offset="1" stop-color="#bf00f7"/></radialGradient><radialGradient id="radial-gradient-3" cx="95.95" cy="165.26" r="106.93" xlink:href="#radial-gradient-2"/><radialGradient id="radial-gradient-4" cx="413.58" cy="337.08" r="84.88" xlink:href="#radial-gradient-2"/><radialGradient id="radial-gradient-5" cx="95.6" cy="337.08" r="84.88" xlink:href="#radial-gradient-2"/><radialGradient id="radial-gradient-6" cx="-7.94" cy="-2250.82" r="157.74" gradientTransform="matrix(0.56, 0.64, -0.56, 0.64, -1007.6, 1672.53)" gradientUnits="userSpaceOnUse"><stop offset="0" stop-color="#f94447"/><stop offset="1" stop-color="#d283f7"/></radialGradient></defs><polygon class="cls-1" points="44.37 382.43 44.37 129.57 257.64 3.21 470.92 129.57 470.92 382.43 257.64 508.79 44.37 382.43"/><path d="M257.64,6.43,468.15,131.15v249.7L257.64,505.57,47.14,380.85V131.15L257.64,6.43m0-6.43-216,128V384l216,128,216-128V128L257.64,0Z"/><path class="cls-2" d="M257.64,477.37a8.22,8.22,0,0,1-4.12-1.11L63.74,366.69a8.26,8.26,0,0,1-4.13-7.14V140.41a8.27,8.27,0,0,1,4.13-7.15L253.52,23.69a8.28,8.28,0,0,1,8.25,0L451.55,133.26a8.26,8.26,0,0,1,4.12,7.15V359.55a8.25,8.25,0,0,1-4.12,7.14L261.77,476.26A8.23,8.23,0,0,1,257.64,477.37Z"/><path class="cls-3" d="M257.64,30.83,447.43,140.4V359.55L257.64,469.12,67.86,359.55V140.4L257.64,30.83m0-16.49a16.51,16.51,0,0,0-8.24,2.21L59.61,126.12a16.5,16.5,0,0,0-8.24,14.28V359.55a16.48,16.48,0,0,0,8.24,14.28L249.4,483.4a16.49,16.49,0,0,0,16.49,0L455.67,373.83a16.47,16.47,0,0,0,8.25-14.28V140.4a16.48,16.48,0,0,0-8.25-14.28L265.89,16.55a16.52,16.52,0,0,0-8.25-2.21Z"/><path class="cls-4" d="M257.64,30.83,447.43,140.4V359.55L257.64,469.12,67.86,359.55V140.4L257.64,30.83m0-5.22a5.19,5.19,0,0,0-2.61.7L65.25,135.88a5.21,5.21,0,0,0-2.61,4.52V359.55a5.2,5.2,0,0,0,2.61,4.52L255,473.65a5.23,5.23,0,0,0,5.23,0L450,364.07a5.2,5.2,0,0,0,2.61-4.52V140.4a5.21,5.21,0,0,0-2.61-4.52L260.26,26.31a5.2,5.2,0,0,0-2.62-.7Z"/><g class="cls-5"><rect class="cls-6" x="206.55" y="73.86" width="54.83" height="379.57" transform="translate(-100.48 152.3) rotate(-30)"/></g><path class="cls-7" d="M198.15,434.76,67.86,359.55V269.77l59.68-65.09,126,150.45Z"/><g class="cls-5"><rect class="cls-6" x="281.56" y="41.29" width="17.64" height="379.57" transform="translate(-76.63 176.15) rotate(-30)"/></g><g class="cls-5"><rect class="cls-6" x="323.12" y="17.3" width="17.64" height="379.57" transform="translate(-59.07 193.71) rotate(-30)"/></g><g class="cls-5"><rect class="cls-6" x="206.7" y="90.96" width="54.83" height="345.83" transform="translate(-100.57 152.41) rotate(-30)"/></g><g class="cls-5"><rect class="cls-6" x="281.71" y="58.39" width="17.64" height="345.83" transform="translate(-76.73 176.25) rotate(-30)"/></g><g class="cls-5"><rect class="cls-6" x="323.27" y="34.4" width="17.64" height="345.83" transform="translate(-59.16 193.82) rotate(-30)"/></g><polygon class="cls-8" points="326.15 177.27 505.94 43.67 407.17 286.86 326.15 177.27"/><path d="M513.29,41.76h0M499.46,52l-93,229-76.3-103.21L499.46,52m11-15a.91.91,0,0,0-.53.18l-187,139a.88.88,0,0,0-.18,1.23l84.27,114a.88.88,0,0,0,.71.35.87.87,0,0,0,.82-.55L511.23,38.23a.89.89,0,0,0-.82-1.23Z"/><polygon class="cls-9" points="6.06 43.67 185.85 177.27 104.83 286.86 6.06 43.67"/><path d="M12.54,52,181.86,177.86l-76.3,103.21-93-229M1.59,37a.89.89,0,0,0-.82,1.23l102.74,253a.87.87,0,0,0,.82.55.88.88,0,0,0,.71-.35l84.27-114a.88.88,0,0,0-.18-1.23l-187-139A.91.91,0,0,0,1.59,37Z"/><polygon class="cls-10" points="332.88 328.31 405.61 248.23 494.28 425.94 332.88 328.31"/><path d="M409.66,248h0m-4.74,5.21L487.33,418.4l-150-90.74,67.6-74.43m1.17-9.34a.87.87,0,0,0-.66.29l-76.27,84a.88.88,0,0,0,.2,1.35L498.62,431.9a.89.89,0,0,0,1.25-1.16l-93-186.36a.87.87,0,0,0-.79-.49Z"/><polygon class="cls-11" points="103.57 248.23 176.3 328.31 14.9 425.94 103.57 248.23"/><path d="M107.4,246.93h0m-3.14,6.3,67.59,74.43-150,90.74,82.41-165.17m-1.17-9.34a.87.87,0,0,0-.79.49l-93,186.36a.89.89,0,0,0,1.25,1.16L179.82,329.51a.88.88,0,0,0,.2-1.35l-76.28-84a.85.85,0,0,0-.65-.29Z"/><polygon class="cls-12" points="256 425.08 78.26 222.56 256 20.04 433.74 222.56 256 425.08"/><polyline class="cls-13" points="256.02 212.35 193.26 212.35 224.64 139.45 256.02 66.56"/><polygon class="cls-14" points="256.05 358.15 310.42 285.05 364.04 212.35 342.44 212.35 318.8 212.35 287.17 285.25 256.05 358.15"/><polygon class="cls-15" points="256 358.15 201.63 285.05 148.01 212.35 169.61 212.35 193.25 212.35 224.88 285.25 256 358.15"/><polygon class="cls-16" points="256.05 66.56 310.42 139.65 364.04 212.35 342.44 212.35 318.8 212.35 287.17 139.45 256.05 66.56"/><polygon class="cls-14" points="256 66.56 201.63 139.65 148.01 212.35 169.61 212.35 193.25 212.35 224.88 139.45 256 66.56"/><polyline class="cls-15" points="256.02 212.35 318.79 212.35 287.41 139.45 256.02 66.56"/><polyline class="cls-17" points="256.02 212.35 193.26 212.35 224.64 285.25 256.02 358.15"/><polyline class="cls-13" points="256.02 212.35 318.79 212.35 287.41 285.25 256.02 358.15"/><path d="M256,66.5,364,212.2a1.61,1.61,0,0,1,0,.31L256,358.21,148.08,212.51a1.61,1.61,0,0,1,0-.31L256,66.5M256,44a9,9,0,0,0-7.2,4L134.26,202.64c-4,5.36-4,14.06,0,19.43L248.83,376.71a8.45,8.45,0,0,0,14.39,0L377.79,222.07c4-5.37,4-14.07,0-19.43L263.22,48A9,9,0,0,0,256,44Z"/><polygon class="cls-14" points="400.92 331.95 405.06 329.61 353.22 349.65 301.82 369.67 309.52 373.99 317.93 378.71 318.54 378.37 317.93 378.71 340.27 391.25 405.07 329.61 400.92 331.95"/><polygon class="cls-15" points="403.05 333.14 405.07 329.61 340.27 391.25 362.62 403.8 362.92 403.26 362.62 403.8 371.03 408.52 378.73 412.84 391.95 371.39 405.07 329.62 403.05 333.14"/><polygon class="cls-15" points="340.27 391.25 317.93 378.71 317.63 379.24 317.93 378.71 309.52 373.99 301.82 369.67 288.6 411.12 275.47 452.89 277.5 449.37 275.48 452.89 340.27 391.25"/><polygon class="cls-13" points="371.03 408.52 362.62 403.8 362.01 404.14 362.62 403.8 340.27 391.25 275.48 452.89 279.63 450.56 275.49 452.9 327.33 432.86 378.73 412.84 371.03 408.52"/><path d="M404.62,331.52l-24.49,77.37a9,9,0,0,1-3.8,3.14L275.92,451l24.49-77.37a9,9,0,0,1,3.81-3.14l100.4-39m8.94-11.8a8.07,8.07,0,0,0-2.81.61l-109.5,42.48c-3.8,1.48-7.67,5.16-8.64,8.22L264.67,459.3c-.69,2.2.3,3.49,2.32,3.49a8.07,8.07,0,0,0,2.81-.61L379.3,419.7c3.8-1.48,7.67-5.16,8.64-8.22l27.93-88.27c.7-2.21-.29-3.49-2.31-3.49Z"/><g class="cls-5"><rect class="cls-6" x="313.23" y="358.65" width="54.83" height="64.72" transform="translate(-118.31 149.58) rotate(-21.19)"/></g><g class="cls-5"><rect class="cls-6" x="339.47" y="360.05" width="27.69" height="52.15" transform="translate(-115.69 153.83) rotate(-21.19)"/></g><polygon class="cls-14" points="114.16 331.95 110.01 329.61 161.85 349.65 213.25 369.67 205.56 373.99 197.14 378.71 196.53 378.37 197.14 378.71 174.8 391.25 110 329.61 114.16 331.95"/><polygon class="cls-15" points="112.02 333.14 110 329.61 174.8 391.25 152.45 403.8 152.15 403.26 152.45 403.8 144.04 408.52 136.35 412.84 123.13 371.39 110 329.62 112.02 333.14"/><polygon class="cls-15" points="174.8 391.25 197.14 378.71 197.44 379.24 197.14 378.71 205.56 373.99 213.25 369.67 226.47 411.12 239.6 452.89 237.57 449.37 239.59 452.89 174.8 391.25"/><polygon class="cls-13" points="144.04 408.52 152.45 403.8 153.06 404.14 152.45 403.8 174.8 391.25 239.59 452.89 235.44 450.56 239.58 452.9 187.74 432.86 136.35 412.84 144.04 408.52"/><path d="M110.45,331.52l100.4,39a8.93,8.93,0,0,1,3.81,3.14L239.15,451,138.74,412a9,9,0,0,1-3.8-3.14l-24.49-77.37m-8.94-11.8c-2,0-3,1.28-2.31,3.49l27.93,88.27c1,3.06,4.84,6.74,8.64,8.22l109.5,42.48a8.07,8.07,0,0,0,2.81.61c2,0,3-1.29,2.32-3.49L222.46,371c-1-3.06-4.83-6.74-8.63-8.22L104.32,320.33a8,8,0,0,0-2.81-.61Z"/></svg>