<svg id="Layer_1" data-name="Layer 1" xmlns="http://www.w3.org/2000/svg" xmlns:xlink="http://www.w3.org/1999/xlink" viewBox="0 0 512 512"><defs><style>.cls-1{fill:#686800;}.cls-2{fill:url(#radial-gradient);}.cls-3{fill:#a19e00;}.cls-4{fill:#fe0;}.cls-5{opacity:0.15;}.cls-6{fill:#fff;}.cls-7{fill:#231f20;}.cls-8{fill:#ffae00;}.cls-9{fill:#edf0ff;}.cls-10{fill:#c4a300;}.cls-11{fill:#ffef94;}.cls-12{fill:#fd0;}</style><radialGradient id="radial-gradient" cx="256" cy="249.98" r="213.22" gradientUnits="userSpaceOnUse"><stop offset="0" stop-color="#6d716d"/><stop offset="1" stop-color="#231f20"/></radialGradient></defs><polygon class="cls-1" points="42.73 382.43 42.73 129.57 256 3.21 469.27 129.57 469.27 382.43 256 508.79 42.73 382.43"/><path d="M256,6.43,466.51,131.15v249.7L256,505.57,45.49,380.85V131.15L256,6.43M256,0,40,128V384L256,512,472,384V128L256,0Z"/><path class="cls-2" d="M256,477.37a8.19,8.19,0,0,1-4.12-1.11L62.09,366.69A8.24,8.24,0,0,1,58,359.55V140.41a8.26,8.26,0,0,1,4.12-7.15L251.88,23.69a8.27,8.27,0,0,1,8.24,0L449.91,133.26a8.26,8.26,0,0,1,4.12,7.15V359.55a8.24,8.24,0,0,1-4.12,7.14L260.12,476.26A8.19,8.19,0,0,1,256,477.37Z"/><path class="cls-3" d="M256,30.83,445.78,140.4V359.55L256,469.12,66.22,359.55V140.4L256,30.83m0-16.49a16.54,16.54,0,0,0-8.25,2.21L58,126.12a16.5,16.5,0,0,0-8.25,14.28V359.55A16.49,16.49,0,0,0,58,373.83L247.75,483.4a16.5,16.5,0,0,0,16.5,0L454,373.83a16.49,16.49,0,0,0,8.25-14.28V140.4A16.5,16.5,0,0,0,454,126.12L264.25,16.55A16.52,16.52,0,0,0,256,14.34Z"/><path class="cls-4" d="M256,30.83,445.78,140.41V359.55L256,469.12,66.22,359.55V140.41L256,30.83m0-5.22a5.19,5.19,0,0,0-2.61.7L63.6,135.88A5.24,5.24,0,0,0,61,140.41V359.55a5.22,5.22,0,0,0,2.61,4.52L253.39,473.65a5.22,5.22,0,0,0,5.22,0L448.4,364.07a5.22,5.22,0,0,0,2.61-4.52V140.41a5.24,5.24,0,0,0-2.61-4.53L258.61,26.31a5.19,5.19,0,0,0-2.61-.7Z"/><g class="cls-5"><rect class="cls-6" x="204.91" y="73.86" width="54.83" height="379.57" transform="translate(-100.7 151.48) rotate(-30)"/></g><polygon class="cls-7" points="157.22 412.09 66.22 359.55 66.22 315.57 112.92 249.98 192.1 366.93 157.22 412.09"/><g class="cls-5"><rect class="cls-6" x="279.91" y="41.29" width="17.64" height="379.57" transform="translate(-76.86 175.33) rotate(-30)"/></g><g class="cls-5"><rect class="cls-6" x="321.48" y="17.3" width="17.64" height="379.57" transform="translate(-59.29 192.89) rotate(-30)"/></g><g class="cls-5"><rect class="cls-6" x="205.05" y="90.96" width="54.83" height="345.83" transform="translate(-100.79 151.59) rotate(-30)"/></g><g class="cls-5"><rect class="cls-6" x="280.06" y="58.39" width="17.64" height="345.83" transform="translate(-76.95 175.43) rotate(-30)"/></g><g class="cls-5"><rect class="cls-6" x="321.62" y="34.4" width="17.64" height="345.83" transform="translate(-59.38 193) rotate(-30)"/></g><path d="M320,145.07l64,110.93L320,366.93H192L127.91,256,192,145.07H320m0-16.49H192a16.49,16.49,0,0,0-14.29,8.25l-64,110.92a16.49,16.49,0,0,0,0,16.5l64,110.92A16.49,16.49,0,0,0,192,383.42H320a16.49,16.49,0,0,0,14.29-8.25l64-110.92a16.49,16.49,0,0,0,0-16.5l-64-110.92A16.49,16.49,0,0,0,320,128.58Z"/><polygon class="cls-8" points="293.7 190.7 218.3 190.7 180.59 256 218.3 321.3 293.7 321.3 331.41 256 293.7 190.7"/><polygon class="cls-9" points="293.7 190.7 218.3 190.7 191.96 145.07 320.04 145.07 293.7 190.7"/><polygon class="cls-10" points="293.7 321.3 218.3 321.3 191.96 366.93 320.04 366.93 293.7 321.3"/><polygon class="cls-11" points="331.41 256 293.7 190.7 320.04 145.07 384.09 256 331.41 256"/><polygon class="cls-12" points="218.3 321.3 180.59 256 127.91 256 191.96 366.93 218.3 321.3"/><polygon class="cls-12" points="293.7 321.3 331.41 256 384.09 256 320.04 366.93 293.7 321.3"/><polygon class="cls-11" points="180.59 256 218.3 190.7 191.96 145.07 127.91 256 180.59 256"/></svg>